<?xml version="1.0" standalone="no"?>
<!DOCTYPE svg PUBLIC "-//W3C//DTD SVG 20010904//EN"
 "http://www.w3.org/TR/2001/REC-SVG-20010904/DTD/svg10.dtd">
<svg version="1.0" xmlns="http://www.w3.org/2000/svg"
 width="192.000000pt" height="192.000000pt" viewBox="0 0 192.000000 192.000000"
 preserveAspectRatio="xMidYMid meet">
<metadata>
Created by potrace 1.14, written by Peter Selinger 2001-2017
</metadata>
<g transform="translate(0.000000,192.000000) scale(0.100000,-0.100000)"
fill="#000000" stroke="none">
<path d="M341 1659 c-93 -42 -173 -158 -239 -344 -12 -33 -23 -71 -26 -85 -2
-14 -5 -26 -7 -27 -1 -2 -2 -6 -3 -10 -1 -5 -5 -17 -9 -28 -24 -73 -31 -183
-15 -214 47 -87 187 -90 231 -4 13 25 66 185 74 223 1 8 13 44 25 79 23 65 44
89 69 79 8 -3 45 -66 82 -140 95 -192 161 -251 277 -252 31 0 70 8 90 17 48
23 114 89 135 135 10 20 21 39 24 42 7 5 38 71 67 137 27 65 70 69 97 10 43
-91 87 -189 87 -192 0 -2 13 -32 29 -67 16 -35 38 -84 50 -110 12 -27 30 -67
40 -90 10 -24 37 -83 59 -133 39 -87 93 -227 127 -330 42 -127 79 -165 162
-165 39 0 50 5 84 39 33 33 39 45 39 82 0 24 -14 82 -31 129 -78 220 -122 337
-139 378 -6 12 -14 32 -19 45 -164 410 -283 637 -390 747 -44 45 -65 59 -98
64 -135 23 -230 -57 -337 -286 -67 -142 -86 -141 -158 11 -48 102 -109 199
-132 213 -6 3 -22 16 -35 27 -49 42 -141 51 -210 20z"/>
</g>
</svg>
